<?xml version="1.0" standalone="no"?>
<!DOCTYPE svg PUBLIC "-//W3C//DTD SVG 20010904//EN"
 "http://www.w3.org/TR/2001/REC-SVG-20010904/DTD/svg10.dtd">
<svg version="1.0" xmlns="http://www.w3.org/2000/svg"
 width="500.000000pt" height="500.000000pt" viewBox="0 0 500.000000 500.000000"
 preserveAspectRatio="xMidYMid meet">

<g transform="translate(0.000000,500.000000) scale(0.100000,-0.100000)"
fill="#000000" stroke="none">
<path d="M2810 3597 c-123 -37 -215 -92 -306 -182 -131 -130 -182 -243 -191
-426 l-6 -107 -61 -31 c-140 -71 -201 -136 -192 -205 9 -74 67 -125 165 -146
52 -11 71 -10 143 5 46 10 96 20 111 22 l28 5 -36 -68 c-49 -97 -69 -194 -62
-313 2 -53 8 -105 13 -116 8 -19 7 -20 -16 -3 -36 26 -117 68 -130 68 -7 0
-30 15 -53 34 -23 18 -52 36 -63 40 -13 4 -28 23 -39 51 -34 90 -150 158 -241
140 -29 -5 -43 -1 -73 20 -76 52 -199 40 -254 -24 -17 -21 -35 -29 -70 -33
-26 -3 -62 -16 -80 -28 -36 -25 -77 -81 -77 -105 0 -8 -17 -22 -37 -30 -21 -9
-44 -22 -53 -30 -8 -7 -44 -23 -80 -35 -62 -21 -121 -57 -147 -90 -48 -60 57
-365 156 -454 26 -24 27 -46 2 -46 -26 0 -71 -38 -71 -60 0 -24 42 -57 89 -70
185 -55 271 -65 546 -65 153 1 267 6 315 14 227 40 320 85 290 141 -13 23 -60
50 -90 50 -19 0 -16 7 24 52 55 63 97 141 126 233 12 39 28 87 35 109 l12 38
36 -63 c47 -84 95 -140 174 -199 l64 -49 -35 -16 c-20 -10 -48 -29 -63 -44
-16 -15 -46 -33 -68 -40 -73 -23 -106 -42 -117 -67 -25 -55 70 -102 292 -144
46 -8 135 -17 395 -40 17 -2 136 -2 265 -2 537 2 951 86 899 184 -12 22 -69
51 -131 66 -27 7 -68 17 -93 23 -24 6 -83 12 -130 13 -47 0 -85 4 -85 7 0 3
17 13 37 23 276 132 478 431 516 763 19 175 -16 348 -84 411 -37 36 -86 29
-150 -19 -74 -57 -146 -89 -196 -89 -37 0 -135 32 -335 109 l-26 10 19 63 c24
81 26 241 3 319 -32 108 -76 181 -159 265 -86 87 -175 140 -285 169 -88 23
-278 19 -370 -8z m329 -92 c190 -45 352 -211 392 -402 24 -120 -5 -271 -73
-364 -32 -45 -39 -86 -17 -100 8 -5 16 -9 19 -9 5 0 48 27 81 52 17 11 28 8
284 -86 101 -38 189 -36 274 4 35 17 80 44 98 61 19 16 40 28 46 26 23 -7 40
-83 45 -192 14 -346 -161 -651 -463 -803 -118 -59 -245 -82 -449 -82 -388 0
-662 97 -784 277 -65 96 -86 170 -85 298 0 127 19 191 85 289 31 45 39 65 35
89 -2 17 2 47 10 65 12 28 12 44 3 86 -26 109 -86 177 -179 199 l-51 12 0 46
c0 66 35 193 71 258 78 141 247 255 419 284 59 10 180 6 239 -8z m-648 -721
c24 -22 55 -122 42 -135 -6 -6 -28 -15 -49 -21 -61 -16 -240 -32 -260 -23 -11
5 -23 7 -28 6 -15 -3 -36 21 -36 42 0 21 46 67 68 67 6 0 12 3 12 8 0 10 51
32 61 26 5 -3 9 0 9 5 0 13 69 43 81 35 5 -3 9 0 9 7 0 16 68 4 91 -17z m-743
-480 c12 -8 29 -28 37 -45 18 -34 33 -36 77 -9 40 24 57 25 102 3 39 -18 66
-64 66 -112 0 -34 14 -45 73 -55 22 -4 43 -16 52 -30 18 -26 37 -118 27 -128
-19 -19 -279 -40 -502 -40 -270 1 -515 27 -452 49 6 3 12 13 12 23 0 22 20 70
35 86 20 21 54 34 87 34 45 0 58 15 58 68 0 63 19 77 97 75 l64 -1 19 38 c11
22 28 44 37 49 27 16 86 13 111 -5z m1152 -744 c8 -4 32 -10 53 -14 25 -5 37
-12 37 -24 0 -13 2 -14 9 -3 5 7 13 12 19 10 7 -3 4 -13 -7 -27 -16 -22 -27
-24 -139 -29 -94 -5 -122 -3 -122 7 0 7 -7 10 -15 6 -20 -7 -45 3 -45 19 0 19
46 46 66 38 12 -4 15 -3 10 5 -4 7 4 14 21 18 15 3 33 7 38 9 12 4 54 -5 75
-15z m772 -67 c10 -12 8 -18 -12 -34 -14 -10 -30 -17 -37 -14 -6 2 -14 -2 -16
-9 -3 -8 -20 -16 -39 -20 -18 -4 -55 -11 -83 -17 -27 -6 -106 -13 -174 -16
-132 -5 -194 5 -206 36 -8 20 30 52 52 44 10 -4 14 -2 9 5 -11 19 35 26 164
24 69 0 145 3 170 7 75 14 158 11 172 -6z"/>
<path d="M2742 3043 c-7 -3 -19 -18 -28 -35 -21 -40 -11 -91 23 -118 48 -38
103 2 103 74 0 65 -44 101 -98 79z"/>
<path d="M3062 2354 c-53 -37 -13 -182 75 -270 88 -88 189 -124 350 -124 194
0 331 62 467 212 59 64 76 110 57 147 -19 34 -54 26 -94 -21 -115 -139 -204
-196 -346 -225 -69 -14 -85 -14 -159 0 -98 19 -137 37 -195 87 -45 40 -71 89
-82 152 -3 22 -14 42 -25 48 -24 13 -21 13 -48 -6z"/>
<path d="M2200 2695 c-19 -22 -8 -25 13 -3 9 10 13 18 8 18 -5 0 -14 -7 -21
-15z"/>
<path d="M1694 2163 c14 -4 15 -7 6 -13 -7 -5 1 -9 24 -12 20 -2 36 -2 36 2 0
8 -52 30 -69 29 -11 -1 -10 -3 3 -6z"/>
<path d="M1665 2139 c-4 -6 -5 -12 -2 -15 2 -3 7 2 10 11 7 17 1 20 -8 4z"/>
<path d="M1706 2121 c-6 -9 35 -24 43 -16 2 3 -1 5 -8 5 -7 0 -9 5 -6 10 3 6
-1 10 -9 10 -8 0 -17 -4 -20 -9z"/>
<path d="M1472 2063 c-10 -4 -9 -8 4 -17 15 -11 14 -15 -11 -34 -15 -12 -22
-22 -15 -22 7 0 21 9 31 21 15 17 21 19 39 9 11 -6 29 -9 38 -7 16 4 16 5 0 6
-10 0 -18 6 -18 11 0 6 -3 9 -7 8 -5 0 -19 4 -33 11 l-25 11 25 -4 c14 -2 33
-7 43 -11 9 -4 17 -3 17 3 0 17 -58 27 -88 15z"/>
<path d="M1901 2024 c0 -11 3 -14 6 -6 3 7 2 16 -1 19 -3 4 -6 -2 -5 -13z"/>
<path d="M1930 2030 c-8 -5 -10 -10 -5 -10 6 0 17 5 25 10 8 5 11 10 5 10 -5
0 -17 -5 -25 -10z"/>
<path d="M1970 2016 c0 -2 7 -9 15 -16 9 -7 15 -8 15 -2 0 5 -7 12 -15 16 -8
3 -15 4 -15 2z"/>
<path d="M1855 2001 c-4 -8 -2 -17 6 -22 19 -12 29 -11 29 2 0 8 15 10 46 6
34 -3 43 -2 34 7 -17 17 -90 14 -91 -4 0 -10 -3 -9 -8 4 -6 15 -10 16 -16 7z"/>
</g>
</svg>
