<?xml version="1.0" standalone="no"?>
<!DOCTYPE svg PUBLIC "-//W3C//DTD SVG 20010904//EN"
 "http://www.w3.org/TR/2001/REC-SVG-20010904/DTD/svg10.dtd">
<svg version="1.0" xmlns="http://www.w3.org/2000/svg"
 width="500.000000pt" height="500.000000pt" viewBox="0 0 500.000000 500.000000"
 preserveAspectRatio="xMidYMid meet">

<g transform="translate(0.000000,500.000000) scale(0.100000,-0.100000)"
fill="#000000" stroke="none">
<path d="M3244 3601 c-131 -21 -242 -79 -332 -176 -84 -90 -121 -157 -136
-248 l-12 -72 -55 -12 c-30 -6 -79 -12 -109 -12 -33 -1 -65 -7 -78 -17 -21
-14 -24 -14 -53 10 -40 34 -68 40 -141 32 -98 -10 -104 -6 -111 74 -8 90 -44
165 -117 243 -110 118 -253 177 -425 177 -158 0 -289 -52 -390 -154 -90 -91
-147 -209 -161 -336 -10 -95 37 -267 96 -350 l20 -28 -54 -25 c-135 -62 -175
-72 -292 -72 l-111 0 -126 63 c-70 34 -139 62 -155 62 -65 0 -112 -88 -137
-256 -14 -95 39 -323 108 -459 89 -178 198 -288 372 -375 l70 -36 -3 -39 c-2
-22 -6 -42 -8 -44 -2 -2 -52 -10 -111 -17 -59 -7 -117 -15 -128 -18 -11 -2
-45 -10 -76 -16 -65 -14 -103 -39 -94 -61 18 -47 226 -93 535 -119 285 -24
807 -7 990 32 52 11 107 22 122 25 37 7 93 56 86 75 -12 30 -148 77 -228 78
-57 1 -74 9 -101 54 l-26 42 76 36 c101 48 184 125 242 224 78 133 94 189 94
334 l0 125 -46 95 c-25 52 -69 125 -97 162 l-51 68 40 50 c36 45 43 50 80 50
80 0 202 55 249 113 15 18 17 18 43 -17 51 -66 167 -114 282 -116 30 -1 49 -9
78 -34 l39 -32 -57 -80 c-120 -165 -154 -273 -136 -419 19 -162 73 -275 178
-378 83 -81 116 -104 221 -154 l93 -44 -30 -35 c-23 -26 -31 -44 -31 -74 0
-44 -10 -55 -34 -37 -17 13 -13 47 5 47 5 0 9 7 9 16 0 13 -10 15 -67 9 -161
-15 -285 -59 -270 -98 10 -26 111 -68 203 -83 404 -67 1140 -55 1407 21 61 18
117 52 117 71 0 22 -94 59 -185 73 -44 7 -102 17 -128 22 -26 5 -70 9 -97 9
-41 0 -50 3 -50 18 0 10 -5 23 -12 30 -9 9 7 20 68 48 171 79 266 158 358 299
73 112 92 154 136 306 50 173 48 316 -5 425 -47 96 -97 105 -218 40 -118 -63
-177 -80 -277 -79 -73 0 -102 6 -210 43 -69 23 -126 43 -127 44 -2 1 18 42 43
92 111 220 91 410 -62 611 -36 47 -142 119 -215 147 -72 27 -204 39 -285 27z
m-1472 -102 c135 -28 257 -119 312 -232 51 -104 46 -161 -23 -239 -86 -99
-100 -150 -53 -197 15 -15 34 -30 42 -33 12 -4 5 -17 -27 -60 -42 -53 -53 -83
-34 -90 5 -1 34 -39 65 -82 112 -156 157 -298 136 -422 -23 -126 -58 -193
-155 -290 -128 -128 -251 -176 -555 -214 -112 -14 -305 7 -437 48 -52 17 -181
79 -227 111 -57 39 -169 152 -209 210 -42 62 -101 199 -122 289 -22 91 -17
280 9 331 9 17 19 31 22 31 3 0 31 -15 62 -34 65 -39 148 -69 244 -87 102 -19
233 6 383 76 63 28 84 34 97 26 24 -15 71 -14 86 1 22 22 12 51 -46 127 -140
184 -154 316 -53 520 79 161 286 251 483 210z m1673 -3 c80 -21 124 -46 189
-107 181 -169 190 -421 21 -630 -55 -68 -65 -95 -43 -117 15 -15 60 -16 75 -1
9 9 34 3 100 -23 155 -62 198 -71 323 -71 124 0 168 11 307 82 34 17 65 31 67
31 12 0 35 -59 47 -119 10 -52 10 -82 -1 -160 -27 -200 -103 -354 -245 -496
-79 -79 -104 -97 -198 -142 -167 -82 -226 -95 -457 -96 -152 -1 -209 3 -260
16 -207 52 -306 103 -410 207 -208 208 -209 460 -3 731 30 38 53 78 51 87 -2
9 -30 37 -63 62 -54 41 -58 45 -35 48 80 9 111 34 117 94 5 58 -13 88 -72 119
-66 34 -98 80 -92 135 16 146 201 325 367 357 53 10 167 6 215 -7z m-1037
-494 c6 -19 -27 -71 -56 -86 -59 -31 -112 -38 -179 -26 -35 7 -66 17 -69 22
-3 5 14 30 38 56 l43 47 109 -1 c71 0 111 -4 114 -12z m426 -24 c24 -18 58
-41 76 -51 19 -10 29 -21 24 -26 -17 -16 -186 -43 -227 -37 -79 13 -123 45
-141 104 -7 22 -6 22 76 23 46 1 94 5 108 9 38 12 37 12 84 -22z m-1744 -1409
c25 -5 74 -13 110 -17 77 -9 147 -39 130 -56 -16 -16 -247 -14 -286 2 -56 24
-75 104 -21 87 12 -4 42 -11 67 -16z m2865 -9 c9 -28 -9 -55 -52 -76 -47 -22
-257 -33 -291 -15 -54 29 29 67 168 78 47 3 101 12 120 19 47 17 48 17 55 -6z
m-2167 -9 c22 -16 22 -19 8 -33 -32 -33 -147 -33 -249 -1 -57 18 -53 33 11 34
26 0 65 4 87 8 68 15 118 12 143 -8z m1617 3 c92 -10 97 -12 85 -34 -10 -18
-21 -20 -105 -20 -100 0 -125 5 -125 25 0 21 43 45 70 40 14 -3 48 -7 75 -11z
m196 -197 c-15 -15 -57 0 -74 27 l-16 24 49 -21 c31 -13 46 -25 41 -30z
m-1953 5 c2 -7 -3 -12 -12 -12 -9 0 -16 7 -16 16 0 17 22 14 28 -4z m1839 12
c-12 -13 -100 -17 -93 -5 4 6 28 11 53 11 26 0 43 -3 40 -6z"/>
<path d="M1822 3153 c-17 -7 -52 -77 -52 -106 0 -52 51 -64 75 -17 20 38 35
38 60 0 22 -33 46 -38 65 -15 18 22 4 79 -29 114 -23 25 -37 31 -68 30 -21 0
-44 -3 -51 -6z"/>
<path d="M1608 2339 c-10 -5 -33 -43 -52 -84 -44 -95 -108 -163 -191 -204 -55
-27 -76 -32 -142 -33 -155 -1 -260 57 -317 177 -27 57 -52 73 -86 55 -46 -24
-4 -131 84 -214 59 -55 77 -66 165 -95 145 -47 316 -17 434 77 120 96 209 289
148 322 -23 12 -22 12 -43 -1z"/>
<path d="M3079 3131 c-37 -38 -39 -82 -4 -116 35 -36 88 -34 126 4 32 33 36
58 14 100 -26 52 -91 57 -136 12z"/>
<path d="M3340 2330 c-58 -58 55 -255 196 -340 114 -68 260 -87 388 -49 127
38 211 109 261 222 21 49 22 57 9 76 -15 21 -49 27 -70 13 -6 -4 -21 -29 -33
-57 -50 -113 -156 -175 -301 -175 -103 0 -161 19 -243 80 -56 41 -102 108
-116 168 -10 46 -35 82 -58 82 -7 0 -22 -9 -33 -20z"/>
</g>
</svg>
