<?xml version="1.0" standalone="no"?>
<!DOCTYPE svg PUBLIC "-//W3C//DTD SVG 20010904//EN"
 "http://www.w3.org/TR/2001/REC-SVG-20010904/DTD/svg10.dtd">
<svg version="1.0" xmlns="http://www.w3.org/2000/svg"
 width="1024.000000pt" height="1024.000000pt" viewBox="0 0 1024.000000 1024.000000"
 preserveAspectRatio="xMidYMid meet">

<g transform="translate(0.000000,1024.000000) scale(0.100000,-0.100000)"
fill="#000000" stroke="none">
<path d="M6418 8531 c-29 -26 -33 -35 -33 -81 0 -45 4 -55 32 -80 41 -37 82
-43 277 -38 86 1 156 2 156 0 0 -5 -167 -189 -322 -354 -170 -182 -183 -204
-155 -270 27 -65 43 -68 412 -68 358 0 370 2 400 60 33 64 4 141 -62 160 -24
8 -104 10 -224 8 l-187 -3 92 99 c50 55 157 171 239 260 159 173 177 203 153
261 -8 17 -26 41 -41 53 -27 22 -34 22 -366 22 l-339 0 -32 -29z"/>
<path d="M4453 7629 c-315 -27 -639 -148 -878 -328 -128 -96 -279 -260 -367
-397 -41 -64 -123 -233 -143 -294 -42 -129 -72 -158 -212 -207 -74 -26 -89
-28 -278 -29 -218 -3 -251 -6 -306 -34 -55 -29 -126 -114 -144 -173 -46 -155
9 -319 160 -472 182 -186 430 -284 762 -302 l112 -6 -119 -124 c-261 -272
-417 -506 -508 -764 -131 -371 -109 -808 56 -1135 169 -335 536 -648 959 -818
822 -330 2088 -399 2941 -160 807 226 1389 742 1656 1468 225 612 216 1460
-17 1713 -57 62 -109 87 -182 87 -77 1 -146 -32 -241 -114 -153 -133 -232
-193 -303 -228 -73 -36 -78 -37 -185 -37 -110 1 -113 1 -310 68 -324 109 -514
148 -792 163 l-131 7 33 55 c49 80 109 241 136 362 19 89 23 131 22 280 -1
195 -18 306 -75 467 -151 428 -539 769 -1021 898 -184 49 -433 71 -625 54z
m437 -248 c474 -96 855 -407 989 -807 67 -199 78 -430 32 -629 -57 -239 -237
-488 -451 -623 -89 -56 -110 -80 -110 -125 0 -49 13 -73 52 -93 50 -26 96 -13
230 65 177 101 184 103 373 104 281 0 456 -32 785 -142 304 -103 402 -118 555
-86 138 29 273 111 454 279 113 103 133 111 172 68 64 -71 93 -251 93 -572 0
-261 -10 -365 -60 -605 -116 -548 -421 -986 -911 -1306 -406 -264 -888 -395
-1543 -419 -830 -29 -1607 105 -2090 361 -489 260 -747 605 -779 1043 -24 335
85 666 321 968 37 46 139 160 227 253 182 189 242 272 282 389 76 217 3 480
-208 747 -35 43 -63 85 -63 93 0 31 63 223 100 302 190 411 621 704 1115 758
86 9 342 -4 435 -23z m-1779 -1193 c148 -172 212 -315 213 -478 l1 -95 -105
-3 c-431 -13 -789 144 -872 382 -23 68 -22 90 6 123 l24 28 209 1 c225 1 300
13 417 68 28 13 54 25 57 25 3 1 26 -23 50 -51z"/>
<path d="M3608 6445 c-36 -20 -52 -73 -45 -150 10 -130 96 -247 225 -308 63
-30 74 -32 177 -32 101 0 114 3 164 29 176 91 263 315 145 371 -54 26 -98 7
-132 -57 -40 -75 -78 -115 -127 -134 -113 -43 -224 23 -240 144 -10 74 -24
110 -52 132 -30 23 -77 25 -115 5z"/>
<path d="M7051 4422 c-20 -22 -69 -76 -109 -120 -207 -231 -547 -430 -870
-511 -135 -34 -275 -51 -419 -51 -317 0 -568 86 -733 250 -82 82 -132 168
-171 292 -34 111 -58 138 -120 138 -48 0 -96 -38 -105 -85 -7 -40 25 -174 61
-252 62 -136 192 -289 315 -373 137 -93 325 -165 515 -195 120 -20 368 -19
508 1 511 74 1016 358 1252 703 72 105 70 187 -5 226 -48 25 -78 19 -119 -23z"/>
<path d="M7145 7491 c-70 -31 -89 -119 -37 -171 36 -35 88 -44 228 -38 58 3
103 1 102 -4 -2 -4 -77 -87 -168 -184 -91 -98 -173 -189 -182 -203 -43 -63 -9
-144 67 -161 60 -14 523 -11 564 3 78 27 100 123 42 180 l-31 32 -150 0 c-83
0 -150 3 -150 6 0 4 76 87 169 187 93 99 174 189 180 200 6 11 11 38 11 60 0
44 -31 85 -75 102 -15 6 -136 10 -278 10 -222 0 -257 -3 -292 -19z"/>
<path d="M6684 6386 c-38 -17 -60 -69 -45 -109 17 -43 48 -57 129 -57 l74 0
-94 -101 c-51 -55 -99 -113 -107 -129 -16 -33 -9 -72 19 -100 19 -19 34 -20
209 -20 l189 0 26 31 c33 38 33 79 2 116 -23 26 -29 28 -104 28 l-80 -1 87 93
c47 52 91 104 98 116 20 36 15 83 -11 114 l-24 28 -169 3 c-127 1 -176 -1
-199 -12z"/>
</g>
</svg>
