<?xml version="1.0" standalone="no"?>
<!DOCTYPE svg PUBLIC "-//W3C//DTD SVG 20010904//EN"
 "http://www.w3.org/TR/2001/REC-SVG-20010904/DTD/svg10.dtd">
<svg version="1.0" xmlns="http://www.w3.org/2000/svg"
 width="500.000000pt" height="500.000000pt" viewBox="0 0 500.000000 500.000000"
 preserveAspectRatio="xMidYMid meet">

<g transform="translate(0.000000,500.000000) scale(0.100000,-0.100000)"
fill="#000000" stroke="none">
<path d="M2983 3565 c-153 -35 -300 -123 -388 -233 -92 -114 -155 -284 -155
-418 0 -41 -4 -54 -15 -54 -30 0 -124 -49 -154 -80 -40 -42 -53 -88 -38 -135
22 -74 114 -115 256 -115 80 0 94 -6 67 -29 -29 -24 -96 -138 -121 -206 -29
-76 -55 -206 -55 -270 0 -72 29 -178 70 -261 46 -95 148 -199 244 -250 l59
-31 -109 -7 c-213 -14 -374 -62 -374 -112 0 -40 160 -93 370 -123 460 -65 826
-65 1390 0 174 20 315 62 350 104 42 50 -83 103 -305 129 l-100 11 68 39 c170
95 327 307 398 536 19 63 23 97 23 210 0 120 -3 142 -25 195 -44 108 -110 129
-209 65 -104 -67 -161 -61 -316 31 -56 33 -120 67 -143 76 -32 12 -40 20 -35
32 84 189 83 396 -2 571 -69 140 -222 266 -384 315 -77 23 -285 29 -367 10z
m316 -110 c87 -23 159 -64 230 -131 115 -107 155 -204 155 -369 0 -88 -4 -124
-22 -179 -20 -58 -68 -147 -92 -166 -3 -3 -16 -18 -28 -34 -17 -22 -19 -32
-11 -47 14 -27 39 -24 79 11 19 16 38 29 43 30 12 0 97 -41 182 -90 176 -101
241 -120 330 -96 31 8 75 26 97 41 51 34 70 29 84 -20 36 -117 0 -330 -80
-481 -118 -222 -263 -338 -502 -400 -124 -33 -362 -43 -576 -25 -259 23 -378
55 -493 136 -240 170 -272 506 -72 770 25 33 59 73 76 89 24 23 28 33 20 47
-7 15 -5 24 11 41 39 43 50 124 25 186 -31 72 -90 112 -166 112 l-39 0 0 63
c0 126 53 241 161 349 82 83 175 137 281 163 73 18 241 18 307 0z m-704 -695
c4 -6 11 -8 16 -4 14 8 41 -17 35 -33 -3 -8 -1 -11 4 -8 20 13 9 -45 -12 -65
-21 -20 -32 -21 -136 -18 -62 2 -116 8 -120 13 -4 6 -14 10 -22 10 -20 0 -22
42 -2 61 8 8 21 13 29 10 8 -3 12 -2 9 3 -6 10 61 29 119 34 22 2 48 4 57 5 9
1 20 -3 23 -8z m416 -1343 c53 -11 56 -13 46 -35 -10 -21 -15 -22 -100 -20
-72 2 -92 6 -101 20 -8 14 -6 21 9 32 24 18 70 19 146 3z m604 -37 c-3 -5 0
-12 6 -16 7 -4 9 -3 5 4 -9 15 13 27 26 14 18 -18 -31 -52 -97 -67 -104 -24
-343 -28 -369 -6 -24 20 -20 39 16 61 28 17 51 19 225 19 106 -1 191 -5 188
-9z"/>
<path d="M2874 2999 c-13 -14 -19 -36 -19 -66 0 -37 5 -49 28 -69 36 -30 57
-30 91 1 34 31 37 104 6 135 -27 27 -81 26 -106 -1z"/>
<path d="M3129 2259 c-46 -46 -4 -195 83 -294 141 -160 384 -183 629 -59 85
43 169 131 169 178 0 16 -38 56 -52 56 -5 0 -33 -22 -61 -49 -109 -103 -222
-151 -353 -151 -168 0 -301 104 -320 250 -10 86 -50 114 -95 69z"/>
<path d="M3190 1356 c0 -2 8 -10 18 -17 15 -13 16 -12 3 4 -13 16 -21 21 -21
13z"/>
<path d="M3269 1358 c-5 -18 -6 -38 -1 -34 7 8 12 36 6 36 -2 0 -4 -1 -5 -2z"/>
</g>
</svg>
